<svg width="48" height="48" viewBox="0 0 48 48" fill="none" xmlns="http://www.w3.org/2000/svg">
<rect width="48" height="48" rx="11.5385" fill="#F2F2F2"/>
<path d="M9.24414 13.68V8.36143C9.24414 7.87711 9.63676 7.4845 10.1211 7.4845H13.971C14.4553 7.4845 14.8479 7.87711 14.8479 8.36143V13.68H9.24414Z" fill="#A478E8"/>
<path d="M39.2232 33.5001C37.6896 33.5001 36.4463 32.2568 36.4463 30.7231C36.4463 29.1894 37.6896 27.9462 39.2232 27.9462C40.7569 27.9462 42.0002 29.1894 42.0002 30.7231C42.0002 32.2568 40.7569 33.5001 39.2232 33.5001Z" fill="#516CF7"/>
<path fill-rule="evenodd" clip-rule="evenodd" d="M17.8392 15.8021V32.814H23.443V23.1956C23.443 22.3513 23.7065 21.6781 24.2337 21.1761C24.7608 20.6512 25.414 20.3888 26.1933 20.3888C26.9038 20.3888 27.5111 20.6284 28.0154 21.1076C28.5196 21.5868 28.7717 22.2828 28.7717 23.1956V32.814H31.4523C33.0667 32.814 34.3754 31.5053 34.3754 29.8909V21.9976C34.3754 20.0351 33.7452 18.4606 32.4846 17.274C31.247 16.0646 29.6999 15.4598 27.8435 15.4598C25.9412 15.4598 24.3827 16.0646 23.1679 17.274V15.8021H17.8392ZM9.24414 15.8021V40.5155L11.5425 39.0469C13.6018 37.731 14.8479 35.4559 14.8479 33.0121V15.8021H9.24414Z" fill="url(#paint0_linear_214_14)"/>
<defs>
<linearGradient id="paint0_linear_214_14" x1="17.839" y1="15.4598" x2="34.3754" y2="15.4598" gradientUnits="userSpaceOnUse">
<stop stop-color="#A478E8"/>
<stop offset="1" stop-color="#516CF7"/>
</linearGradient>
</defs>
</svg>
