<svg width="48" height="48" viewBox="0 0 48 48" fill="none" xmlns="http://www.w3.org/2000/svg">
<rect width="48" height="48" rx="7" fill="#0D0D0D"/>
<path d="M23.9994 8.93302C27.1251 12.9011 28.7937 17.7944 28.7332 22.8155V24.0141L29.7644 24.6416C31.0969 25.4482 32.0906 26.6993 32.5645 28.1669C32.1484 27.8605 31.7131 27.5803 31.2612 27.3278L28.5112 25.7838L28.017 28.9001C27.9742 29.1755 27.9168 29.4485 27.8451 29.718H20.1394C20.0248 29.3655 19.9317 29.0129 19.8458 28.6463L19.2227 25.8261L16.6876 27.2362C16.2641 27.473 15.8551 27.7344 15.463 28.0188C15.9461 26.5682 16.9191 25.3242 18.2201 24.4935L19.2013 23.866V22.7521C19.219 17.7513 20.9076 12.8952 24.0066 8.93302H23.9994ZM24.0066 6C23.8459 6.00039 23.6907 6.05799 23.5697 6.16216L23.5053 6.21857C19.3757 10.7656 17.0826 16.6454 17.06 22.745C15.3076 23.8643 14.0104 25.5543 13.3952 27.5197C12.7799 29.485 12.8857 31.6007 13.6941 33.4971C14.5457 31.6455 15.9692 30.1058 17.7618 29.0975C17.9416 29.8642 18.181 30.6161 18.478 31.3467C18.5156 31.4871 18.5991 31.6114 18.7155 31.7006C18.832 31.7898 18.975 31.8388 19.1225 31.8402H29.0626C29.2631 31.8402 29.4636 31.6498 29.5639 31.3537C29.8537 30.6592 30.0557 29.9322 30.1655 29.1892C31.9615 30.1932 33.3862 31.7342 34.2332 33.5887C35.0903 31.7017 35.223 29.5727 34.6067 27.5967C33.9903 25.6206 32.6667 23.9319 30.8816 22.8437C30.9524 16.7082 28.6714 10.7718 24.4936 6.21857C24.4314 6.15008 24.3552 6.09524 24.2701 6.05759C24.185 6.01993 24.0928 6.00031 23.9994 6H24.0066Z" fill="#4EA8DE"/>
<path d="M23.9995 22.1598C23.4494 22.1598 22.9117 21.9995 22.454 21.699C21.9964 21.3986 21.6393 20.9715 21.4278 20.4716C21.2164 19.9716 21.16 19.4213 21.2657 18.8898C21.3715 18.3584 21.6347 17.8697 22.0221 17.4853C22.4096 17.1009 22.904 16.838 23.4429 16.7298C23.9819 16.6216 24.5414 16.6729 25.0508 16.8773C25.5602 17.0816 25.9967 17.4298 26.3054 17.8781C26.6141 18.3263 26.781 18.8545 26.7853 19.396C26.7938 19.7469 26.7321 20.0961 26.6035 20.4235C26.475 20.751 26.2822 21.0503 26.0361 21.3043C25.79 21.5583 25.4955 21.7622 25.1694 21.9041C24.8433 22.0461 24.492 22.1234 24.1355 22.1316C24.0905 22.1387 24.0445 22.1387 23.9995 22.1316V22.1598Z" fill="#4EA8DE"/>
<path d="M27.8738 33.5958C27.6946 33.5901 27.5161 33.6198 27.3487 33.683C27.1813 33.7462 27.0284 33.8416 26.899 33.9638C26.7696 34.086 26.6663 34.2323 26.5951 34.3943C26.5239 34.5563 26.4863 34.7307 26.4845 34.9072V39.067C26.4845 39.4297 26.6309 39.7776 26.8914 40.0342C27.152 40.2907 27.5053 40.4348 27.8738 40.4348C28.2423 40.4348 28.5957 40.2907 28.8562 40.0342C29.1168 39.7776 29.2631 39.4297 29.2631 39.067V34.9636C29.2689 34.7877 29.239 34.6126 29.1752 34.4482C29.1115 34.2839 29.0151 34.1337 28.8918 34.0064C28.7685 33.879 28.6207 33.7772 28.457 33.7067C28.2933 33.6362 28.1169 33.5985 27.9383 33.5958H27.8738Z" fill="#5E60CE"/>
<path d="M20.1394 33.5957C19.9572 33.5863 19.7749 33.6129 19.6034 33.6742C19.4318 33.7355 19.2746 33.8302 19.1409 33.9525C19.0073 34.0749 18.9 34.2224 18.8255 34.3864C18.751 34.5504 18.7107 34.7275 18.7072 34.9071V39.067C18.7072 39.4297 18.8535 39.7776 19.1141 40.0341C19.3746 40.2906 19.728 40.4348 20.0965 40.4348C20.4649 40.4348 20.8183 40.2906 21.0789 40.0341C21.3394 39.7776 21.4858 39.4297 21.4858 39.067V34.9635C21.4915 34.7877 21.4616 34.6125 21.3979 34.4482C21.3341 34.2838 21.2378 34.1336 21.1145 34.0063C20.9912 33.879 20.8433 33.7771 20.6796 33.7067C20.5159 33.6362 20.3396 33.5985 20.1609 33.5957H20.1394Z" fill="#5E60CE"/>
<path d="M23.8992 33.5958C23.7205 33.592 23.5428 33.623 23.3763 33.6869C23.2097 33.7507 23.0576 33.8463 22.9286 33.9681C22.7996 34.0899 22.6962 34.2355 22.6243 34.3966C22.5525 34.5577 22.5136 34.7312 22.5099 34.9072V40.6392C22.5099 41.002 22.6563 41.3499 22.9168 41.6064C23.1774 41.8629 23.5307 42.007 23.8992 42.007C24.2677 42.007 24.6211 41.8629 24.8816 41.6064C25.1422 41.3499 25.2885 41.002 25.2885 40.6392V34.9988C25.2943 34.823 25.2644 34.6478 25.2006 34.4835C25.1369 34.3191 25.0405 34.1689 24.9172 34.0416C24.7939 33.9143 24.6461 33.8124 24.4824 33.7419C24.3187 33.6714 24.1423 33.6337 23.9637 33.631L23.8992 33.5958Z" fill="#5E60CE"/>
</svg>
