<svg width="120" height="47" viewBox="0 0 120 47" fill="none" xmlns="http://www.w3.org/2000/svg">
<path d="M58.6799 37C56.9199 37 55.5097 36.5712 54.4491 35.7138C53.3886 34.8564 52.8584 33.3333 52.8584 31.1446V23.8338H49.9814V20.2123H52.8584L53.3661 15.7107H57.1907V20.2123H61.7261V23.8338H57.1907V31.1784C57.1907 31.9907 57.3599 32.5548 57.6984 32.8707C58.0594 33.1641 58.6686 33.3107 59.5261 33.3107H61.6245V37H58.6799Z" fill="url(#paint0_linear_337_248)"/>
<path d="M71.3791 37.4061C69.7545 37.4061 68.2878 37.0338 66.9791 36.2892C65.6929 35.5446 64.6663 34.5179 63.8991 33.2092C63.1545 31.8779 62.7822 30.3436 62.7822 28.6061C62.7822 26.8687 63.1658 25.3456 63.9329 24.0369C64.7001 22.7056 65.7268 21.6677 67.0129 20.923C68.3217 20.1784 69.7883 19.8061 71.4129 19.8061C73.015 19.8061 74.4591 20.1784 75.7452 20.923C77.054 21.6677 78.0806 22.7056 78.8252 24.0369C79.5924 25.3456 79.976 26.8687 79.976 28.6061C79.976 30.3436 79.5924 31.8779 78.8252 33.2092C78.0806 34.5179 77.054 35.5446 75.7452 36.2892C74.4365 37.0338 72.9811 37.4061 71.3791 37.4061ZM71.3791 33.6492C72.5073 33.6492 73.4888 33.2318 74.3237 32.3969C75.1586 31.5395 75.576 30.2759 75.576 28.6061C75.576 26.9364 75.1586 25.6841 74.3237 24.8492C73.4888 23.9918 72.5186 23.563 71.4129 23.563C70.2622 23.563 69.2693 23.9918 68.4345 24.8492C67.6222 25.6841 67.216 26.9364 67.216 28.6061C67.216 30.2759 67.6222 31.5395 68.4345 32.3969C69.2693 33.2318 70.2509 33.6492 71.3791 33.6492Z" fill="url(#paint1_linear_337_248)"/>
<path d="M89.8742 37.4061C88.2947 37.4061 86.8844 37.0225 85.6434 36.2554C84.4024 35.4882 83.4208 34.4389 82.6988 33.1077C81.9767 31.7764 81.6157 30.2646 81.6157 28.5723C81.6157 26.88 81.9767 25.3795 82.6988 24.0707C83.4208 22.7395 84.4024 21.7015 85.6434 20.9569C86.8844 20.1897 88.2947 19.8061 89.8742 19.8061C91.1378 19.8061 92.2434 20.043 93.1911 20.5169C94.1388 20.9907 94.906 21.6564 95.4926 22.5138V12.6307H99.8249V37H95.9665L95.4926 34.5969C94.9511 35.3415 94.229 35.9959 93.3265 36.56C92.4465 37.1241 91.2957 37.4061 89.8742 37.4061ZM90.788 33.6154C92.187 33.6154 93.3265 33.1528 94.2065 32.2277C95.109 31.28 95.5603 30.0728 95.5603 28.6061C95.5603 27.1395 95.109 25.9436 94.2065 25.0184C93.3265 24.0707 92.187 23.5969 90.788 23.5969C89.4116 23.5969 88.2721 24.0595 87.3695 24.9846C86.467 25.9097 86.0157 27.1056 86.0157 28.5723C86.0157 30.0389 86.467 31.2461 87.3695 32.1938C88.2721 33.1415 89.4116 33.6154 90.788 33.6154Z" fill="url(#paint2_linear_337_248)"/>
<path d="M110.6 37.4061C108.975 37.4061 107.508 37.0338 106.2 36.2892C104.913 35.5446 103.887 34.5179 103.12 33.2092C102.375 31.8779 102.003 30.3436 102.003 28.6061C102.003 26.8687 102.386 25.3456 103.153 24.0369C103.921 22.7056 104.947 21.6677 106.233 20.923C107.542 20.1784 109.009 19.8061 110.633 19.8061C112.236 19.8061 113.68 20.1784 114.966 20.923C116.275 21.6677 117.301 22.7056 118.046 24.0369C118.813 25.3456 119.197 26.8687 119.197 28.6061C119.197 30.3436 118.813 31.8779 118.046 33.2092C117.301 34.5179 116.275 35.5446 114.966 36.2892C113.657 37.0338 112.202 37.4061 110.6 37.4061ZM110.6 33.6492C111.728 33.6492 112.709 33.2318 113.544 32.3969C114.379 31.5395 114.797 30.2759 114.797 28.6061C114.797 26.9364 114.379 25.6841 113.544 24.8492C112.709 23.9918 111.739 23.563 110.633 23.563C109.483 23.563 108.49 23.9918 107.655 24.8492C106.843 25.6841 106.437 26.9364 106.437 28.6061C106.437 30.2759 106.843 31.5395 107.655 32.3969C108.49 33.2318 109.471 33.6492 110.6 33.6492Z" fill="url(#paint3_linear_337_248)"/>
<path d="M0 8.79822V1.24533C0 0.557555 0.557555 0 1.24533 0H6.7126C7.40038 0 7.95794 0.557556 7.95794 1.24533V8.79822H0Z" fill="url(#paint4_linear_337_248)"/>
<path d="M42.5734 36.9449C40.3955 36.9449 38.6299 35.1793 38.6299 33.0014V33.0014C38.6299 30.8234 40.3955 29.0578 42.5734 29.0578V29.0578C44.7514 29.0578 46.517 30.8234 46.517 33.0014V33.0014C46.517 35.1793 44.7514 36.9449 42.5734 36.9449V36.9449Z" fill="url(#paint5_linear_337_248)"/>
<path fill-rule="evenodd" clip-rule="evenodd" d="M12.2054 11.812V35.9706H20.1634V22.3115C20.1634 21.1125 20.5377 20.1565 21.2863 19.4436C22.0349 18.6982 22.9625 18.3256 24.0691 18.3256C25.0781 18.3256 25.9406 18.6658 26.6567 19.3464C27.3727 20.0269 27.7307 21.0153 27.7307 22.3115V35.9706H31.5376C33.8302 35.9706 35.6887 34.1121 35.6887 31.8195V20.6102C35.6887 17.8233 34.7936 15.5873 33.0035 13.9022C31.2459 12.1846 29.0489 11.3259 26.4126 11.3259C23.7111 11.3259 21.4978 12.1846 19.7728 13.9022V11.812H12.2054ZM-1.39464e-05 11.812V46.9076L3.26391 44.822C6.18828 42.9533 7.95792 39.7224 7.95792 36.252V11.812H-1.39464e-05Z" fill="url(#paint6_linear_337_248)"/>
<defs>
<linearGradient id="paint0_linear_337_248" x1="49.9814" y1="12.6307" x2="119.197" y2="12.6307" gradientUnits="userSpaceOnUse">
<stop stop-color="#A478E8"/>
<stop offset="1" stop-color="#516CF7"/>
</linearGradient>
<linearGradient id="paint1_linear_337_248" x1="49.9814" y1="12.6307" x2="119.197" y2="12.6307" gradientUnits="userSpaceOnUse">
<stop stop-color="#A478E8"/>
<stop offset="1" stop-color="#516CF7"/>
</linearGradient>
<linearGradient id="paint2_linear_337_248" x1="49.9814" y1="12.6307" x2="119.197" y2="12.6307" gradientUnits="userSpaceOnUse">
<stop stop-color="#A478E8"/>
<stop offset="1" stop-color="#516CF7"/>
</linearGradient>
<linearGradient id="paint3_linear_337_248" x1="49.9814" y1="12.6307" x2="119.197" y2="12.6307" gradientUnits="userSpaceOnUse">
<stop stop-color="#A478E8"/>
<stop offset="1" stop-color="#516CF7"/>
</linearGradient>
<linearGradient id="paint4_linear_337_248" x1="0" y1="0" x2="7.95794" y2="0" gradientUnits="userSpaceOnUse">
<stop stop-color="#A478E8"/>
<stop offset="1" stop-color="#516CF7"/>
</linearGradient>
<linearGradient id="paint5_linear_337_248" x1="38.6299" y1="29.0578" x2="46.517" y2="29.0578" gradientUnits="userSpaceOnUse">
<stop stop-color="#A478E8"/>
<stop offset="1" stop-color="#516CF7"/>
</linearGradient>
<linearGradient id="paint6_linear_337_248" x1="0" y1="11.3259" x2="35.6887" y2="11.3259" gradientUnits="userSpaceOnUse">
<stop stop-color="#A478E8"/>
<stop offset="1" stop-color="#516CF7"/>
</linearGradient>
</defs>
</svg>
